<svg width="71" height="74" viewBox="0 0 71 74" fill="none" xmlns="http://www.w3.org/2000/svg">
<path fill-rule="evenodd" clip-rule="evenodd" d="M40.7976 3.91445C40.7976 1.75256 39.0451 0 36.8832 0H3.91445C1.75256 0 0 1.75256 0 3.91445V36.8832C0 39.0451 1.75256 40.7976 3.91445 40.7976H26.2224C28.3843 40.7976 30.1368 42.5502 30.1368 44.7121V70.0953C30.1368 72.2572 31.8894 74.0098 34.0513 74.0098H67.02C69.1819 74.0098 70.9344 72.2572 70.9344 70.0953V37.1266C70.9344 34.9647 69.1819 33.2121 67.02 33.2121H44.7121C42.5502 33.2121 40.7976 31.4596 40.7976 29.2977V3.91445Z" fill="#18181B"/>
<path d="M27.1566 6.823V27.2633C27.1566 28.5265 26.9406 29.6688 26.5085 30.6901C26.0765 31.6846 25.4554 32.5312 24.6453 33.23C23.8622 33.9289 22.9035 34.4798 21.7694 34.883C20.6622 35.2593 19.4201 35.4474 18.0429 35.4474C15.3695 35.4474 13.2632 34.7755 11.724 33.4316C10.2118 32.0878 9.23968 30.3004 8.80762 28.0696L13.7898 27.0214C14.0328 28.204 14.4649 29.185 15.086 29.9644C15.7341 30.717 16.7197 31.0933 18.0429 31.0933C19.258 31.0933 20.1897 30.7439 20.8378 30.0451C21.4858 29.3194 21.8099 28.1905 21.8099 26.6585V11.1771H12.2506V6.823H27.1566Z" fill="#C7D2FE"/>
<path d="M60.9185 68.7203H40.6123V64.0849L54.593 44.9385H41.0958V40.5852H60.3947V45.2206L46.4544 64.367H60.9185V68.7203Z" fill="#C7D2FE"/>
</svg>
