<svg width="66" height="66" viewBox="0 0 66 66" fill="none" xmlns="http://www.w3.org/2000/svg">
<path fill-rule="evenodd" clip-rule="evenodd" d="M40.7976 3.91445C40.7976 1.75256 39.0451 0 36.8832 0H3.91445C1.75256 0 0 1.75256 0 3.91445V36.8832C0 39.0451 1.75256 40.7976 3.91445 40.7976H21.0855C23.2474 40.7976 25 42.5502 25 44.7121V61.8832C25 64.0451 26.7526 65.7976 28.9145 65.7976H61.8832C64.0451 65.7976 65.7976 64.0451 65.7976 61.8832V28.9145C65.7976 26.7526 64.0451 25 61.8832 25H44.7121C42.5502 25 40.7976 23.2474 40.7976 21.0855V3.91445Z" fill="#18181B"/>
<path d="M27.349 6V26.4403C27.349 27.7035 27.133 28.8458 26.7009 29.8671C26.2688 30.8616 25.6478 31.7082 24.8376 32.407C24.0545 33.1059 23.0959 33.6568 21.9618 34.06C20.8546 34.4363 19.6124 34.6244 18.2353 34.6244C15.5619 34.6244 13.4556 33.9525 11.9164 32.6086C10.4042 31.2648 9.43206 29.4774 9 27.2466L13.9822 26.1984C14.2252 27.381 14.6573 28.362 15.2784 29.1414C15.9264 29.894 16.9121 30.2703 18.2353 30.2703C19.4504 30.2703 20.382 29.9209 21.0301 29.2221C21.6782 28.4964 22.0023 27.3675 22.0023 25.8355V10.3541H12.443V6H27.349Z" fill="#C7D2FE"/>
<path d="M55.3062 59.1351H35V54.4997L48.9807 35.3533H35.4835V31H54.7824V35.6354L40.8421 54.7818H55.3062V59.1351Z" fill="#C7D2FE"/>
</svg>